<?xml version="1.0" encoding="UTF-8"?>
<svg width="35px" height="51px" viewBox="0 0 35 51" version="1.1" xmlns="http://www.w3.org/2000/svg" xmlns:xlink="http://www.w3.org/1999/xlink">
    <defs>
        <path d="M17.5081967,0.919247499 C7.99180328,0.919247499 0.295081967,8.61786984 0.295081967,18.1366137 C0.295081967,31.0496384 17.5081967,50.1117225 17.5081967,50.1117225 C17.5081967,50.1117225 34.7213115,31.0496384 34.7213115,18.1366137 C34.7213115,8.61786984 27.0245902,0.919247499 17.5081967,0.919247499 Z M17.795082,21.9192475 C15.863082,21.9192475 14.295082,20.3512475 14.295082,18.4192475 C14.295082,16.4872475 15.863082,14.9192475 17.795082,14.9192475 C19.727082,14.9192475 21.295082,16.4872475 21.295082,18.4192475 C21.295082,20.3512475 19.727082,21.9192475 17.795082,21.9192475 Z" id="path-1"></path>
    </defs>
    <g id="Symbols" stroke="none" stroke-width="2" fill="none" fill-rule="evenodd">
        <g id="map-pin">
            <g id="Shape">
                <use fill="#536DFE" fill-rule="evenodd" xlink:href="#path-1"></use>
                <path stroke="#FFFFFF" stroke-width="2" d="M17.5081967,49.3569804 C17.618807,49.2304902 17.7392464,49.0917387 17.8689785,48.9411196 C18.4542104,48.2616648 19.1066546,47.482662 19.8094788,46.6164683 C21.8179249,44.1411646 23.8264371,41.4648785 25.7002399,38.6869492 C28.1711734,35.0237681 30.2164448,31.4634222 31.6912973,28.115207 C33.3390062,24.3745726 34.2213115,21.0146807 34.2213115,18.1366137 C34.2213115,8.89398457 26.7484201,1.4192475 17.5081967,1.4192475 C8.2679733,1.4192475 0.795081967,8.89398457 0.795081967,18.1366137 C0.795081967,21.0146807 1.67738727,24.3745726 3.32509613,28.115207 C4.79994862,31.4634222 6.84522003,35.0237681 9.31615358,38.6869492 C11.1899564,41.4648785 13.1984685,44.1411646 15.2069147,46.6164683 C15.9097389,47.482662 16.562183,48.2616648 17.1474149,48.9411196 C17.277147,49.0917387 17.3975865,49.2304902 17.5081967,49.3569804 Z M17.795082,22.4192475 C15.5869396,22.4192475 13.795082,20.6273899 13.795082,18.4192475 C13.795082,16.2111051 15.5869396,14.4192475 17.795082,14.4192475 C20.0032243,14.4192475 21.795082,16.2111051 21.795082,18.4192475 C21.795082,20.6273899 20.0032243,22.4192475 17.795082,22.4192475 Z"></path>
            </g>
        </g>
    </g>
</svg>
